#!OML:ASF H:\Pregnant\Project 1\Capture day 1\Session 1\femalepreg.ASF
:FULLY-SPECIFIED
:DEGREES
1209
root 6.23294 2.57291 16.6358 -69.3661 5.07198 -103.523
lowerback 0.57787 2.96656 -8.34241
upperback 1.08252 4.08933 6.14081
thorax -0.226668 2.09804 11.2174
lowerneck -16.7235 -0.88303 -0.271492
upperneck 34.3814 -1.8059 4.5414
head 14.7565 0.00979353 1.66173
rclavicle 3.18055e-015 2.70347e-014
rhumerus -24.0015 59.7974 -91.8961
rradius 89.8777
rwrist 21.3714
rhand -67.6068 -78.2431
rfingers 7.12502
rthumb -39.3588 -256.341
lclavicle 3.18055e-015 2.70347e-014
lhumerus 92.6321 -0.888627 37.388
lradius 31.1423
lwrist 17.9379
lhand 13.8859 19.5979
lfingers 7.12502
lthumb 38.802 45.1744
rfemur -64.0396 -1.56044 31.794
rtibia 121.7
rfoot 7.14612 -0.470518
rtoes -7.65541
lfemur -67.2514 -21.3025 -26.3859
ltibia 121.571
lfoot 24.3066 -0.653121
ltoes 7.02499
1210
root 6.24494 2.57002 16.6355 -69.2897 4.84018 -103.708
lowerback 0.560236 3.06296 -8.03972
upperback 1.03594 4.23043 6.25805
thorax -0.289402 2.1807 11.1606
lowerneck -16.7171 -0.716084 0.0945822
upperneck 34.4338 -1.72471 4.72274
head 14.7779 0.125864 1.68993
rclavicle 7.95139e-014 7.79236e-014
rhumerus -24.4852 59.5724 -91.9394
rradius 90.0496
rwrist 21.5959
rhand -67.5287 -81.5983
rfingers 7.12502
rthumb -39.2852 -252.964
lclavicle 7.95139e-014 7.79236e-014
lhumerus 92.8625 -1.1399 37.4628
lradius 31.1145
lwrist 18.0156
lhand 14.2502 19.7417
lfingers 7.12502
lthumb 39.1454 45.2199
rfemur -64.1937 -1.16668 31.6653
rtibia 121.251
rfoot 5.35659 -0.62494
rtoes -11.1784
lfemur -67.2811 -21.3194 -26.0002
ltibia 121.484
lfoot 24.4171 -0.273157
ltoes 6.78274
1211
root 6.25486 2.56612 16.6384 -69.1484 4.62868 -103.869
lowerback 0.475579 3.14277 -7.74495
upperback 0.986277 4.35148 6.34799
thorax -0.310146 2.24999 11.0831
lowerneck -16.7888 -0.5271 0.476108
upperneck 34.5289 -1.61153 4.8883
head 14.8367 0.257225 1.71661
rclavicle -4.77083e-014 1.59028e-015
rhumerus -24.869 59.3764 -91.9517
rradius 90.2029
rwrist 21.8343
rhand -67.4977 -84.119
rfingers 7.12502
rthumb -39.256 -250.435
lclavicle -4.77083e-014 1.59028e-015
lhumerus 93.0462 -1.29213 37.4049
lradius 31.1483
lwrist 18.2079
lhand 14.6165 19.8984
lfingers 7.12502
lthumb 39.4906 45.2761
rfemur -64.4492 -0.697456 31.5314
rtibia 120.811
rfoot 3.73489 -0.524344
rtoes -14.2023
lfemur -67.4001 -21.3721 -25.6196
ltibia 121.498
lfoot 24.6393 0.137968
ltoes 6.8054
1212
root 6.26347 2.56167 16.6415 -68.9984 4.44646 -104.021
lowerback 0.385616 3.21125 -7.46896
upperback 0.945398 4.45582 6.41641
thorax -0.313339 2.30867 10.9943
lowerneck -16.9219 -0.317829 0.865008
upperneck 34.6554 -1.47072 5.0487
head 14.9244 0.402245 1.74688
rclavicle -1.90833e-014 -3.26007e-014
rhumerus -25.1682 59.1997 -91.9307
rradius 90.3452
rwrist 22.0803
rhand -67.5165 -85.8619
rfingers 7.12502
rthumb -39.2737 -248.697
lclavicle -1.90833e-014 -3.26007e-014
lhumerus 93.2005 -1.36222 37.2517
lradius 31.2253
lwrist 18.4913
lhand 15.0069 20.0788
lfingers 7.12502
lthumb 39.8581 45.3475
rfemur -64.715 -0.208456 31.3779
rtibia 120.346
rfoot 2.27065 -0.107816
rtoes -16.7022
lfemur -67.5232 -21.4321 -25.266
ltibia 121.572
lfoot 24.9566 0.532391
ltoes 7.22469
1213
root 6.27116 2.55686 16.6444 -68.8505 4.30107 -104.165
lowerback 0.295626 3.2735 -7.22732
upperback 0.909191 4.55047 6.47192
thorax -0.310034 2.36133 10.9126
lowerneck -17.0594 -0.0948698 1.24335
upperneck 34.7775 -1.30475 5.20451
head 15.0117 0.556261 1.78227
rclavicle 2.8625e-014 1.35174e-014
rhumerus -25.4305 59.0283 -91.8864
rradius 90.4818
rwrist 22.3346
rhand -67.5022 -87.4802
rfingers 7.12502
rthumb -39.2603 -247.075
lclavicle 2.8625e-014 1.35174e-014
lhumerus 93.3421 -1.40296 37.0935
lradius 31.312
lwrist 18.7917
lhand 15.4182 20.2741
lfingers 7.12502
lthumb 40.2452 45.4257
rfemur -64.9732 0.273443 31.1993
rtibia 119.854
rfoot 0.955352 0.611854
rtoes -18.7568
lfemur -67.6418 -21.4739 -24.9613
ltibia 121.674
lfoot 25.3574 0.910313
ltoes 8.01506
1214
root 6.27836 2.55197 16.647 -68.7181 4.19478 -104.305
lowerback 0.21628 3.33097 -7.02571
upperback 0.877808 4.63716 6.51962
thorax -0.307574 2.40939 10.8461
lowerneck -17.1694 0.140965 1.59181
upperneck 34.8649 -1.11319 5.37351
head 15.0766 0.718319 1.83223
rclavicle -1.59028e-014 7.4743e-014
rhumerus -25.6741 58.8626 -91.823
rradius 90.6155
rwrist 22.583
rhand -67.4627 -89.0707
rfingers 7.12502
rthumb -39.2231 -245.474
lclavicle -1.59028e-014 7.4743e-014
lhumerus 93.4872 -1.45215 36.9959
lradius 31.3798
lwrist 19.0449
lhand 15.8876 20.4941
lfingers 7.12502
lthumb 40.6865 45.5093
rfemur -65.1978 0.725725 30.9961
rtibia 119.329
rfoot -0.211471 1.57018
rtoes -20.4357
lfemur -67.7441 -21.4743 -24.7268
ltibia 121.76
lfoot 25.8532 1.23096
ltoes 8.92127
1215
root 6.28523 2.54722 16.6492 -68.6115 4.13431 -104.44
lowerback 0.157958 3.38332 -6.87082
upperback 0.858239 4.71497 6.55886
thorax -0.304941 2.45199 10.7976
lowerneck -17.2579 0.38215 1.9108
upperneck 34.9262 -0.907736 5.55609
head 15.1246 0.883508 1.89496
rclavicle -5.08889e-014 -1.11319e-014
rhumerus -25.8833 58.7115 -91.7265
rradius 90.7473
rwrist 22.8148
rhand -67.3858 90.6891
rfingers 7.12502
rthumb -39.1506 -243.834
lclavicle -5.08889e-014 -1.11319e-014
lhumerus 93.6399 -1.50206 36.9593
lradius 31.4283
lwrist 19.2518
lhand 16.4188 20.7415
lfingers 7.12502
lthumb 41.1855 45.5986
rfemur -65.3709 1.12605 30.7692
rtibia 118.774
rfoot -1.23635 2.69782
rtoes -21.9639
lfemur -67.8238 -21.4039 -24.5821
ltibia 121.8
lfoot 26.4408 1.4313
ltoes 9.59427
1216
root 6.29162 2.54274 16.6507 -68.5401 4.12217 -104.573
lowerback 0.133677 3.42745 -6.76644
upperback 0.84913 4.77934 6.59227
thorax -0.310566 2.48733 10.7713
lowerneck -17.3051 0.621073 2.195
upperneck 34.9681 -0.700192 5.7646
head 15.1546 1.04781 1.97425
rclavicle 6.67916e-014 2.38542e-015
rhumerus -26.0503 58.5918 -91.5987
rradius 90.8679
rwrist 23.0036
rhand -67.2932 92.2378
rfingers 7.12502
rthumb -39.0633 -242.26
lclavicle 6.67916e-014 2.38542e-015
lhumerus 93.791 -1.5397 36.9621
lradius 31.464
lwrist 19.4427
lhand 16.9893 21.0176
lfingers 7.12502
lthumb 41.7208 45.7005
rfemur -65.4778 1.45372 30.5229
rtibia 118.19
rfoot -2.12496 3.94409
rtoes -23.4005
lfemur -67.8694 -21.2791 -24.5342
ltibia 121.786
lfoot 27.0986 1.54697
ltoes 9.97896
1217
root 6.29735 2.53864 16.6518 -68.5119 4.15586 -104.704
lowerback 0.153606 3.46422 -6.70907
upperback 0.855408 4.83112 6.61969
thorax -0.325097 2.51566 10.7644
lowerneck -17.3319 0.850338 2.44274
upperneck 35.0149 -0.505781 6.01061
head 15.1832 1.20696 2.07382
rclavicle -2.22639e-014 -2.3059e-014
rhumerus -26.1656 58.5021 -91.4369
rradius 90.9783
rwrist 23.1454
rhand -67.2048 93.7329
rfingers 7.12502
rthumb -38.98 -240.741
lclavicle -2.22639e-014 -2.3059e-014
lhumerus 93.9422 -1.56323 37.0069
lradius 31.4867
lwrist 19.612
lhand 17.6064 21.3203
lfingers 7.12502
lthumb 42.2991 45.8094
rfemur -65.509 1.69957 30.2681
rtibia 117.582
rfoot -2.89932 5.23898
rtoes -24.811
lfemur -67.8686 -21.1292 -24.5892
ltibia 121.703
lfoot 27.8241 1.49561
ltoes 9.72161
